<svg width="34" height="34" viewBox="0 0 34 34" fill="none" xmlns="http://www.w3.org/2000/svg">
<path d="M22.9259 25H11.0741C10.4195 25 9.88888 24.5094 9.88888 23.9044C9.88888 22.0921 11.1051 20.4701 12.9408 19.8341L13.3053 19.7078C15.6875 18.8824 18.3125 18.8824 20.6947 19.7078L21.0592 19.8341C22.8949 20.4701 24.1111 22.0921 24.1111 23.9044C24.1111 24.5094 23.5805 25 22.9259 25Z" stroke="#303030" stroke-width="2" stroke-linecap="square" stroke-linejoin="round"/>
<path d="M15.193 15.3988C16.3272 15.9374 17.6728 15.9374 18.807 15.3988C19.8625 14.8975 20.6188 13.9846 20.8671 12.9119L20.9334 12.6256C21.1873 11.5286 20.9161 10.3838 20.1894 9.4853L20.083 9.35373C19.3563 8.45515 18.2137 7.92603 17 7.92603C15.7863 7.92603 14.6437 8.45515 13.9169 9.35374L13.8105 9.4853C13.0839 10.3838 12.8127 11.5286 13.0666 12.6256L13.1329 12.9119C13.3812 13.9846 14.1374 14.8975 15.193 15.3988Z" stroke="#303030" stroke-width="2" stroke-linecap="square" stroke-linejoin="round"/>
<circle cx="17" cy="17" r="16" stroke="#303030" stroke-width="2"/>
</svg>
